<svg xmlns="http://www.w3.org/2000/svg" viewBox="0 0 160 100" width="160" height="100">
    <title>Collector Logo</title>
    <path fill="#000000" d="M0 0h160v100h-160z"/>
    <path fill="#ffffff" d="M22.5 10c1.4 0 2.7.2 3.8.6 1.1.4 2.1 1 2.9 1.7.8.7 1.5 1.6 2 2.7s.7 2.7.8 4h-5c-.1-1.3-.5-2.7-1.3-3.4-.8-.7-1.9-1.1-3.2-1.1-1.4 0-2.5.4-3.3 1.2-.8.8-1.2 1.9-1.2 3.3v12c0 1.4.4 2.5 1.2 3.3.8.8 1.9 1.2 3.3 1.2 1.3 0 2.4-.4 3.2-1.1.8-.7 1.2-2.1 1.3-3.3h5c-.1 2.6-1 5.1-2.7 6.7-1.7 1.6-3.9 2.3-6.8 2.3-1.4 0-2.7-.2-3.9-.6-1.2-.4-2.2-1-3-1.8-.8-.8-1.5-1.7-1.9-2.8-.5-1.3-.7-2.6-.7-3.9v-12c0-1.4.2-2.6.7-3.7.5-1.1 1.1-2.1 1.9-2.8.8-.8 1.8-1.4 3-1.8 1.2-.5 2.5-.7 3.9-.7zm44.5 1v22c0 1.1 1 2 2 2h7v5h-7c-4 0-7-3-7-7v-18h-7v-4h12zm40.5 29c-1.4 0-2.7-.2-3.9-.6-1.2-.4-2.2-1-3-1.8-.8-.8-1.5-1.7-1.9-2.7-.5-1.1-.7-2.6-.7-3.9v-5c0-1.3.2-2.8.7-3.9.5-1.1 1.1-2 1.9-2.7.8-.8 1.8-1.3 3-1.7 1.2-.4 2.5-.6 3.9-.6s2.7.2 3.9.6c1.2.4 2.2 1 3 1.8.8.8 1.5 1.7 1.9 2.7.5 1.1.7 2.6.7 3.9v4h-14l-.1 1.2c0 1.5.4 2.6 1.2 3.5.8.8 1.9 1.2 3.4 1.2 1.1 0 2-.2 2.8-.5.8-.3 1.3-.8 1.6-1.5h4.9c-.2.9-.6 1.7-1.2 2.5s-1.2 1.4-2 1.9-1.7.9-2.7 1.2c-1.1.2-2.2.4-3.4.4zm4.5-13l.1-1.3c0-1.5-.4-2.6-1.2-3.4-.8-.8-1.9-1.2-3.4-1.2-1.4 0-2.6.4-3.4 1.2-.8.8-1.2 2-1.2 3.4l.1 1.3h9zm18.5 13c-1.4 0-2.7-.2-3.9-.6-1.2-.4-2.2-1-3-1.7-.8-.8-1.5-1.7-1.9-2.7-.5-1.1-.7-2.2-.7-3.6v-5.7c0-1.3.2-2.5.7-3.6.5-1.1 1.1-2 1.9-2.7.8-.8 1.8-1.3 3-1.8 1.2-.4 2.5-.6 3.9-.6 1.3 0 2.4.2 3.5.5 1.1.4 2 .9 2.9 1.6.8.7 1.5 1.5 2 2.5s.9 2.2 1.1 3.4h-5c-.2-1-.7-2-1.5-2.6-.8-.6-1.8-.9-3.1-.9-1.4 0-2.5.4-3.3 1.1-.8.8-1.2 1.8-1.2 3.1v5.7c0 1.3.4 2.4 1.2 3.1.8.8 1.9 1.1 3.3 1.1 1.2 0 2.2-.3 3-.9.8-.6 1.3-1.6 1.5-2.6h5c-.2 1.2-.5 2.5-1.1 3.4-.5 1-1.2 1.8-2.1 2.5-.8.7-1.8 1.2-2.9 1.6-.9.2-2.1.4-3.3.4zm-118.5 22h6v-7h5v7h9v5h-9v11c0 1 1 2 2 2h7v5h-7c-4 0-7-3.1-7-7v-11h-6v-5zm47 0h5v4h1c0-1.9 2-4 6-4 5 0 8 3 8 9v1h-5v-1c0-2.8-2.4-5-5-5s-5 1.5-5 5v14h-5v-23zm21 23h20v5h-20v-5zm-44-14c0-1.3.2-2.8.7-3.8.5-1.1 1.1-2 1.9-2.8.8-.8 1.8-1.4 3-1.8 1.2-.4 2.5-.6 3.9-.6s2.7.2 3.9.6c1.2.4 2.2 1 3 1.8.8.8 1.5 1.7 1.9 2.8.5 1.1.7 2.5.7 3.8v5c0 1.3-.2 2.7-.7 3.8-.5 1.1-1.1 2-1.9 2.8-.8.8-1.8 1.4-3 1.8-1.2.4-2.5.6-3.9.6s-2.7-.2-3.9-.6c-1.2-.4-2.2-1-3-1.8-.8-.8-1.5-1.7-1.9-2.8-.5-1.1-.7-2.5-.7-3.8v-5zm5 5c0 3.3 1.7 5 4.5 5 2.9 0 4.5-1.7 4.5-4.8v-5.3c0-3.2-1.6-4.9-4.5-4.9-2.8 0-4.5 1.6-4.5 5v5zm44-65v22c0 1 1 2 2 2h7v5h-7c-4 0-7-3-7-7v-18h-7v-4h12zm-49 15c0-1.3.2-2.8.7-3.8.5-1.1 1.1-2 1.9-2.8.8-.8 1.8-1.4 3-1.8 1.2-.4 2.5-.6 3.9-.6s2.7.2 3.9.6c1.2.4 2.2 1 3 1.8.8.8 1.5 1.7 1.9 2.8.5 1.1.7 2.5.7 3.8v5c0 1.3-.2 2.7-.7 3.8-.5 1.1-1.1 2-1.9 2.8-.8.8-1.8 1.4-3 1.8-1.2.4-2.5.6-3.9.6s-2.7-.2-3.9-.6c-1.2-.4-2.2-1-3-1.8-.8-.8-1.5-1.7-1.9-2.8-.5-1.1-.7-2.5-.7-3.8v-5zm5 5c0 3.3 1.7 5 4.5 5 2.9 0 4.5-1.7 4.5-4.8v-5.3c0-3.2-1.6-4.9-4.5-4.9-2.8 0-4.5 1.6-4.5 5v5z"/>
</svg>
